<svg width="1080" height="471" viewBox="0 0 1080 471" fill="none" xmlns="http://www.w3.org/2000/svg">
<g clip-path="url(#clip0_55_81)">
<path d="M357.371 425.119C359.674 425.119 361.852 425.338 363.906 425.773C365.959 426.147 367.764 426.831 369.32 427.827C371.124 428.947 372.557 430.534 373.615 432.588C374.672 434.641 375.202 437.193 375.202 440.242V469.461H370.067L369.32 461.807H368.947C368.2 462.989 367.204 464.109 365.959 465.167C364.715 466.225 363.315 467.159 361.759 467.968C360.266 468.777 358.616 469.399 356.811 469.835C355.068 470.333 353.326 470.581 351.583 470.581C347.476 470.581 344.396 469.399 342.342 467.034C340.289 464.607 339.261 461.589 339.261 457.979C339.261 454.432 340.163 451.6 341.968 449.484C343.773 447.368 345.982 445.782 348.596 444.724C351.21 443.666 353.948 442.981 356.811 442.67C359.736 442.359 362.288 442.203 364.466 442.203H368.666V441.083C368.666 438.718 368.325 436.913 367.64 435.668C367.018 434.423 366.084 433.365 364.839 432.494C363.781 431.81 362.63 431.343 361.385 431.094C360.203 430.783 358.616 430.627 356.624 430.627C354.011 430.627 351.708 430.97 349.716 431.654C347.725 432.339 345.796 433.241 343.929 434.361L342.435 428.761C346.605 426.334 351.584 425.119 357.371 425.119ZM406.852 425.119C409.839 425.119 412.764 425.462 415.626 426.146C418.489 426.831 420.792 427.733 422.535 428.854L420.948 434.361C419.516 433.303 417.463 432.37 414.786 431.561C412.11 430.689 409.434 430.254 406.758 430.254C404.02 430.254 401.686 430.721 399.757 431.654C397.89 432.588 396.334 433.833 395.089 435.389C393.845 436.944 392.942 438.749 392.382 440.803C391.822 442.794 391.542 444.879 391.542 447.057C391.542 449.484 391.884 451.818 392.569 454.059C393.253 456.299 394.249 458.259 395.556 459.939C396.925 461.62 398.574 462.957 400.503 463.953C402.495 464.949 404.798 465.447 407.411 465.447C409.901 465.447 412.453 464.918 415.067 463.86C417.743 462.802 419.952 461.464 421.695 459.846L423.001 465.914C421.259 467.034 418.862 468.092 415.813 469.088C412.826 470.084 409.62 470.581 406.198 470.581C402.588 470.581 399.414 469.959 396.676 468.715C394 467.47 391.76 465.82 389.955 463.767C388.213 461.651 386.874 459.224 385.941 456.485C385.07 453.685 384.634 450.729 384.634 447.617C384.634 444.63 385.039 441.798 385.848 439.122C386.719 436.384 388.057 433.988 389.862 431.935C391.666 429.819 393.969 428.169 396.77 426.986C399.57 425.742 402.931 425.119 406.852 425.119ZM500.475 425.119C505.952 425.119 510.184 426.52 513.171 429.32C516.158 432.059 517.652 435.948 517.652 440.989C517.652 442.047 517.59 443.137 517.465 444.257C517.341 445.314 517.123 446.092 516.812 446.59H485.352V447.523C485.352 449.888 485.663 452.161 486.286 454.339C486.908 456.517 487.842 458.446 489.086 460.126C490.331 461.806 491.887 463.145 493.754 464.141C495.683 465.136 497.955 465.634 500.569 465.634C502.062 465.634 503.525 465.478 504.956 465.167C506.388 464.794 507.757 464.358 509.064 463.86C510.371 463.3 511.584 462.709 512.704 462.087C513.825 461.465 514.821 460.842 515.692 460.22L516.812 465.541C516.003 466.039 515.007 466.598 513.825 467.221C512.642 467.781 511.335 468.31 509.904 468.808C508.472 469.305 506.885 469.71 505.143 470.021C503.463 470.395 501.689 470.581 499.822 470.581C496.337 470.581 493.256 469.99 490.58 468.808C487.904 467.563 485.664 465.914 483.859 463.86C482.054 461.744 480.685 459.317 479.751 456.579C478.818 453.841 478.351 450.977 478.351 447.99C478.351 444.941 478.818 442.047 479.751 439.309C480.747 436.508 482.178 434.05 484.045 431.935C485.912 429.819 488.215 428.169 490.953 426.986C493.754 425.742 496.928 425.119 500.475 425.119ZM574.23 425.119C579.706 425.119 583.938 426.52 586.925 429.32C589.912 432.059 591.407 435.948 591.407 440.989C591.407 442.047 591.344 443.137 591.219 444.257C591.095 445.314 590.877 446.092 590.566 446.59H559.107V447.523C559.107 449.888 559.418 452.161 560.04 454.339C560.663 456.517 561.597 458.446 562.841 460.126C564.086 461.806 565.641 463.145 567.508 464.141C569.437 465.136 571.709 465.634 574.323 465.634C575.816 465.634 577.279 465.478 578.71 465.167C580.142 464.794 581.511 464.358 582.818 463.86C584.125 463.3 585.338 462.709 586.458 462.087C587.578 461.465 588.574 460.842 589.446 460.22L590.566 465.541C589.757 466.039 588.761 466.598 587.578 467.221C586.396 467.781 585.09 468.31 583.659 468.808C582.227 469.305 580.639 469.71 578.897 470.021C577.217 470.395 575.443 470.581 573.577 470.581C570.091 470.581 567.01 469.99 564.334 468.808C561.658 467.563 559.418 465.914 557.614 463.86C555.809 461.744 554.44 459.317 553.506 456.579C552.573 453.841 552.106 450.977 552.106 447.99C552.106 444.941 552.573 442.047 553.506 439.309C554.502 436.508 555.933 434.05 557.8 431.935C559.667 429.819 561.97 428.169 564.708 426.986C567.509 425.742 570.683 425.119 574.23 425.119ZM607.425 454.898C607.425 456.828 607.643 458.446 608.078 459.753C608.576 461.06 609.199 462.118 609.946 462.927C610.755 463.674 611.688 464.234 612.746 464.607C613.867 464.919 615.08 465.074 616.387 465.074C617.943 465.074 619.468 464.856 620.961 464.42C622.517 463.922 623.948 463.207 625.255 462.273C626.562 461.34 627.714 460.188 628.709 458.819C629.705 457.45 630.483 455.863 631.043 454.059V426.52H637.578V469.461H632.444L631.697 461.433H631.324C630.515 464.046 628.709 466.225 625.909 467.968C623.108 469.71 619.623 470.581 615.453 470.581C613.462 470.581 611.564 470.333 609.759 469.835C608.017 469.337 606.492 468.527 605.185 467.407C603.878 466.225 602.82 464.7 602.011 462.833C601.264 460.904 600.891 458.539 600.891 455.738V426.52H607.425V454.898ZM694.836 425.119C696.96 425.119 699.227 425.382 701.636 425.906L703.198 426.267C705.772 426.886 707.963 427.78 709.772 428.947L707.998 434.548C706.754 433.49 704.887 432.525 702.398 431.654C699.971 430.783 697.294 430.348 694.37 430.348C691.382 430.348 689.203 430.907 687.834 432.027C686.528 433.085 685.874 434.548 685.874 436.415C685.874 437.037 685.968 437.691 686.155 438.375C686.341 439.06 686.683 439.714 687.181 440.336C687.741 440.896 688.457 441.456 689.328 442.017C690.262 442.514 691.476 442.918 692.969 443.229L699.597 444.724C702.211 445.284 704.296 446.061 705.852 447.057C707.47 447.99 708.714 449.018 709.585 450.138C710.457 451.258 711.017 452.409 711.266 453.592C711.577 454.712 711.733 455.77 711.733 456.766C711.733 458.695 711.328 460.499 710.519 462.18C709.772 463.86 708.652 465.323 707.159 466.567C705.727 467.812 703.953 468.776 701.837 469.461C699.721 470.208 697.356 470.581 694.743 470.581C691.444 470.581 688.395 470.115 685.594 469.182C682.794 468.186 680.554 467.096 678.873 465.914L680.553 459.846C682.794 461.899 685.284 463.394 688.022 464.327C690.76 465.261 693.218 465.727 695.396 465.728C698.507 465.728 700.873 464.981 702.491 463.487C704.109 461.932 704.918 460.313 704.918 458.633C704.918 458.073 704.887 457.45 704.825 456.766C704.762 456.019 704.513 455.272 704.078 454.525C703.642 453.779 702.989 453.094 702.118 452.472C701.246 451.787 700.001 451.258 698.383 450.885L689.421 448.644C687.368 448.146 685.688 447.492 684.381 446.684C683.074 445.875 682.047 445.004 681.3 444.07C680.553 443.075 680.024 442.047 679.713 440.989C679.402 439.869 679.246 438.749 679.246 437.629C679.246 433.833 680.647 430.814 683.448 428.573C686.31 426.271 690.107 425.119 694.836 425.119ZM536.098 426.52H546.18V430.907H536.098V460.687C536.098 462.678 536.378 463.985 536.938 464.607C537.56 465.23 538.494 465.54 539.739 465.54C541.17 465.54 542.446 465.322 543.566 464.887C544.686 464.451 545.682 463.922 546.553 463.3L547.86 468.248C546.802 468.746 545.402 469.243 543.66 469.741C541.979 470.239 540.112 470.488 538.058 470.488C536.067 470.488 534.511 470.208 533.391 469.648C532.271 469.088 531.431 468.341 530.87 467.407C530.31 466.474 529.937 465.447 529.75 464.327C529.626 463.145 529.564 461.993 529.564 460.873V430.907H522.375V427.453L529.75 426.52L531.151 413.544H536.098V426.52ZM438.778 434.548C439.587 431.934 441.329 429.725 444.005 427.92C446.744 426.053 450.198 425.119 454.368 425.119C456.359 425.119 458.226 425.4 459.968 425.96C461.773 426.458 463.329 427.298 464.636 428.48C465.943 429.663 466.969 431.219 467.716 433.147C468.525 435.077 468.93 437.442 468.93 440.242V469.461H462.395V441.083C462.395 437.287 461.555 434.611 459.874 433.055C458.194 431.437 456.048 430.627 453.434 430.627C451.878 430.627 450.322 430.876 448.766 431.374C447.272 431.872 445.872 432.619 444.565 433.614C443.258 434.548 442.107 435.731 441.112 437.162C440.116 438.531 439.338 440.118 438.778 441.923V469.461H432.243V400.382H438.778V434.548ZM668.845 425.119C670.028 425.119 671.273 425.338 672.579 425.773C673.886 426.147 674.819 426.644 675.379 427.267L673.419 433.428C672.424 432.868 671.428 432.432 670.432 432.121C669.436 431.748 668.472 431.561 667.538 431.561C666.294 431.561 665.111 431.903 663.991 432.588C662.871 433.272 661.844 434.206 660.911 435.389C659.977 436.571 659.137 437.94 658.39 439.496C657.706 441.052 657.176 442.67 656.803 444.35V469.461H650.268V426.52H655.403L656.15 435.948H656.523C656.958 434.517 657.519 433.148 658.203 431.841C658.95 430.534 659.821 429.382 660.817 428.387C661.875 427.391 663.058 426.613 664.365 426.053C665.671 425.431 667.165 425.119 668.845 425.119ZM367.827 446.964C365.275 446.964 362.723 447.057 360.171 447.244C357.62 447.431 355.286 447.897 353.17 448.644C351.117 449.39 349.436 450.48 348.129 451.911C346.822 453.28 346.169 455.178 346.169 457.605C346.169 460.033 346.822 461.9 348.129 463.207C349.498 464.452 351.303 465.074 353.543 465.074C356.095 465.074 358.803 464.265 361.665 462.646C364.528 461.028 366.862 458.695 368.666 455.646V446.964H367.827ZM500.195 430.348C496.088 430.348 492.883 431.436 490.58 433.614C488.34 435.73 486.815 438.407 486.006 441.643H511.491C511.553 441.332 511.584 441.052 511.584 440.803V439.962C511.584 438.406 511.273 437.037 510.651 435.854C510.028 434.61 509.188 433.583 508.13 432.774C507.072 431.965 505.859 431.374 504.49 431.001C503.12 430.565 501.688 430.348 500.195 430.348ZM573.95 430.348C569.842 430.348 566.637 431.436 564.334 433.614C562.094 435.73 560.569 438.406 559.76 441.643H585.245C585.308 441.332 585.338 441.052 585.338 440.803V439.962C585.338 438.406 585.027 437.037 584.405 435.854C583.782 434.61 582.942 433.583 581.884 432.774C580.826 431.965 579.613 431.374 578.244 431.001C576.874 430.565 575.443 430.348 573.95 430.348ZM359.612 323.782C364.03 323.782 368.044 324.404 371.654 325.648C375.325 326.893 378.437 328.605 380.989 330.783C384.287 333.77 386.684 337.411 388.177 341.705C389.671 345.999 390.417 350.667 390.417 355.708C390.417 359.94 389.826 363.954 388.644 367.75C387.461 371.484 385.625 374.783 383.136 377.646C380.709 380.508 377.628 382.78 373.894 384.46C370.16 386.14 365.741 386.98 360.638 386.98C356.22 386.98 352.237 386.855 348.69 386.606C345.205 386.42 342.062 386.172 339.261 385.86V324.248H339.728C342.715 324.124 345.951 324.031 349.436 323.969C352.921 323.844 356.313 323.782 359.612 323.782ZM406.683 371.297C406.683 373.226 406.901 374.845 407.336 376.151C407.834 377.458 408.457 378.516 409.203 379.325C410.013 380.072 410.946 380.632 412.004 381.006C413.124 381.317 414.338 381.473 415.645 381.473C417.201 381.473 418.726 381.255 420.219 380.819C421.775 380.321 423.206 379.605 424.513 378.672C425.82 377.738 426.971 376.587 427.967 375.218C428.963 373.849 429.741 372.262 430.301 370.457V342.919H436.835V385.86H431.702L430.954 377.832H430.58C429.771 380.446 427.967 382.624 425.166 384.366C422.366 386.109 418.881 386.98 414.711 386.98C412.72 386.98 410.822 386.731 409.017 386.233C407.275 385.736 405.75 384.927 404.443 383.807C403.136 382.624 402.078 381.099 401.269 379.232C400.522 377.303 400.149 374.938 400.149 372.138V342.919H406.683V371.297ZM489.957 341.519C492.945 341.519 495.87 341.86 498.733 342.545C501.596 343.229 503.898 344.133 505.641 345.253L504.054 350.76C502.623 349.702 500.569 348.769 497.893 347.96C495.217 347.089 492.541 346.652 489.865 346.652C487.127 346.652 484.793 347.119 482.864 348.053C480.997 348.986 479.44 350.231 478.196 351.787C476.951 353.343 476.049 355.148 475.489 357.201C474.929 359.193 474.649 361.278 474.649 363.456C474.649 365.883 474.991 368.217 475.675 370.457C476.36 372.697 477.356 374.658 478.662 376.338C480.032 378.018 481.681 379.357 483.61 380.353C485.601 381.348 487.904 381.846 490.518 381.846C493.007 381.846 495.559 381.317 498.173 380.259C500.849 379.201 503.058 377.863 504.8 376.245L506.108 382.312C504.365 383.433 501.969 384.491 498.919 385.486C495.932 386.482 492.727 386.98 489.304 386.98C485.695 386.98 482.521 386.358 479.783 385.113C477.107 383.869 474.866 382.22 473.061 380.166C471.318 378.05 469.981 375.623 469.047 372.885C468.176 370.084 467.741 367.127 467.741 364.016C467.741 361.029 468.145 358.197 468.953 355.521C469.825 352.783 471.163 350.387 472.968 348.333C474.773 346.217 477.076 344.568 479.876 343.386C482.677 342.141 486.037 341.519 489.957 341.519ZM533.568 341.519C537.364 341.519 540.631 342.172 543.37 343.479C546.108 344.723 548.349 346.435 550.091 348.613C551.896 350.729 553.203 353.188 554.012 355.988C554.883 358.726 555.319 361.621 555.319 364.67C555.319 367.719 554.883 370.613 554.012 373.352C553.203 376.027 551.927 378.392 550.185 380.445C548.442 382.437 546.202 384.025 543.463 385.207C540.787 386.389 537.613 386.98 533.942 386.98C530.146 386.98 526.847 386.358 524.046 385.113C521.308 383.869 519.037 382.22 517.232 380.166C515.427 378.05 514.088 375.623 513.217 372.885C512.346 370.147 511.911 367.252 511.911 364.203C511.911 361.154 512.346 358.26 513.217 355.521C514.088 352.783 515.396 350.387 517.138 348.333C518.943 346.217 521.214 344.568 523.953 343.386C526.691 342.141 529.896 341.519 533.568 341.519ZM611.798 341.519C617.275 341.519 621.507 342.918 624.495 345.719C627.482 348.457 628.975 352.347 628.975 357.388C628.975 358.446 628.913 359.535 628.788 360.655C628.664 361.713 628.446 362.491 628.135 362.989H596.675V363.923C596.675 366.288 596.986 368.559 597.609 370.737C598.231 372.915 599.165 374.845 600.41 376.525C601.654 378.205 603.21 379.543 605.077 380.539C607.006 381.535 609.278 382.032 611.892 382.032C614.879 382.032 617.68 381.503 620.293 380.445C622.969 379.387 625.179 378.237 626.921 376.992L628.135 381.939C627.326 382.437 626.33 382.998 625.148 383.62C623.965 384.18 622.658 384.709 621.227 385.207C619.796 385.705 618.209 386.109 616.466 386.42C614.786 386.793 613.012 386.98 611.145 386.98C607.66 386.98 604.579 386.389 601.903 385.207C599.227 383.962 596.987 382.312 595.182 380.259C593.377 378.143 592.008 375.716 591.075 372.978C590.141 370.239 589.674 367.377 589.674 364.39C589.674 361.34 590.141 358.446 591.075 355.708C592.07 352.907 593.502 350.449 595.369 348.333C597.236 346.217 599.538 344.568 602.277 343.386C605.077 342.141 608.251 341.519 611.798 341.519ZM698.964 385.86H693.829L693.082 378.205H692.709C691.216 380.508 689.038 382.561 686.175 384.366C683.312 386.109 679.889 386.98 675.907 386.98C672.733 386.98 669.963 386.358 667.598 385.113C665.233 383.869 663.273 382.22 661.717 380.166C660.161 378.112 658.978 375.747 658.169 373.071C657.423 370.333 657.049 367.47 657.049 364.482C657.049 361.433 657.454 358.508 658.263 355.708C659.134 352.907 660.379 350.48 661.997 348.427C663.678 346.311 665.762 344.63 668.251 343.386C670.741 342.141 673.635 341.519 676.933 341.519C681.103 341.519 684.526 342.421 687.202 344.226C689.878 346.03 691.62 348.271 692.429 350.947V316.78H698.964V385.86ZM730.909 341.519C736.385 341.519 740.617 342.918 743.604 345.719C746.591 348.457 748.084 352.347 748.084 357.388C748.084 358.446 748.022 359.535 747.898 360.655C747.773 361.713 747.556 362.491 747.245 362.989H715.786V363.923C715.786 366.288 716.097 368.559 716.719 370.737C717.341 372.915 718.274 374.845 719.519 376.525C720.764 378.206 722.32 379.543 724.187 380.539C726.116 381.535 728.388 382.033 731.001 382.033C732.495 382.033 733.958 381.878 735.389 381.566C736.82 381.193 738.19 380.757 739.496 380.259C740.803 379.699 742.017 379.108 743.137 378.485C744.257 377.863 745.253 377.241 746.124 376.618L747.245 381.939C746.435 382.437 745.44 382.998 744.257 383.62C743.075 384.18 741.768 384.709 740.336 385.207C738.905 385.705 737.318 386.109 735.576 386.42C733.895 386.793 732.121 386.98 730.254 386.98C726.769 386.98 723.689 386.389 721.013 385.207C718.337 383.962 716.096 382.313 714.291 380.259C712.487 378.143 711.117 375.716 710.184 372.978C709.251 370.239 708.784 367.377 708.784 364.39C708.784 361.34 709.251 358.446 710.184 355.708C711.18 352.907 712.612 350.449 714.479 348.333C716.346 346.217 718.648 344.568 721.386 343.386C724.187 342.141 727.361 341.519 730.909 341.519ZM771.105 341.519C773.532 341.519 776.146 341.86 778.947 342.545C781.747 343.167 784.112 344.101 786.041 345.346L784.268 350.947C783.023 349.889 781.156 348.924 778.666 348.053C776.239 347.182 773.563 346.746 770.638 346.746C767.651 346.746 765.473 347.307 764.104 348.427C762.797 349.485 762.144 350.947 762.144 352.813C762.144 353.436 762.237 354.09 762.423 354.774C762.61 355.459 762.953 356.112 763.451 356.734C764.011 357.294 764.727 357.855 765.598 358.415C766.531 358.913 767.745 359.318 769.239 359.629L775.867 361.122C778.48 361.682 780.565 362.46 782.12 363.456C783.738 364.39 784.984 365.416 785.855 366.536C786.726 367.656 787.286 368.808 787.535 369.99C787.846 371.11 788.001 372.168 788.001 373.164C788.001 375.093 787.598 376.899 786.788 378.579C786.042 380.259 784.921 381.721 783.427 382.966C781.996 384.21 780.223 385.176 778.107 385.86C775.991 386.607 773.626 386.98 771.012 386.98C767.714 386.98 764.664 386.514 761.864 385.58C759.063 384.584 756.822 383.495 755.142 382.312L756.823 376.245C759.063 378.299 761.552 379.792 764.29 380.726C767.029 381.659 769.487 382.126 771.665 382.126C774.777 382.126 777.142 381.379 778.76 379.886C780.378 378.33 781.187 376.712 781.187 375.031C781.187 374.471 781.156 373.849 781.094 373.164C781.032 372.417 780.783 371.671 780.347 370.924C779.911 370.177 779.258 369.492 778.387 368.87C777.516 368.186 776.271 367.657 774.653 367.283L765.691 365.043C763.637 364.545 761.957 363.891 760.65 363.082C759.343 362.273 758.316 361.402 757.57 360.469C756.823 359.473 756.294 358.446 755.983 357.388C755.672 356.268 755.516 355.147 755.516 354.027C755.516 350.231 756.916 347.213 759.716 344.973C762.579 342.67 766.375 341.519 771.105 341.519ZM573.666 342.919H583.748V347.307H573.666V377.085C573.666 379.076 573.947 380.384 574.507 381.006C575.129 381.628 576.063 381.939 577.307 381.939C578.738 381.939 580.015 381.722 581.135 381.286C582.255 380.851 583.251 380.322 584.122 379.699L585.429 384.646C584.371 385.144 582.97 385.643 581.228 386.141C579.548 386.638 577.681 386.887 575.627 386.887C573.636 386.887 572.08 386.607 570.959 386.047C569.839 385.487 568.999 384.74 568.439 383.807C567.879 382.873 567.505 381.846 567.319 380.726C567.194 379.543 567.132 378.392 567.132 377.271V347.307H559.944V343.853L567.319 342.919L568.719 329.943H573.666V342.919ZM533.288 346.746C530.737 346.746 528.558 347.213 526.753 348.146C524.949 349.08 523.455 350.325 522.273 351.881C521.091 353.437 520.219 355.272 519.659 357.388C519.098 359.441 518.819 361.62 518.819 363.923C518.819 366.288 519.098 368.559 519.659 370.737C520.281 372.915 521.183 374.845 522.366 376.525C523.61 378.206 525.167 379.543 527.034 380.539C528.963 381.535 531.234 382.033 533.848 382.033C536.337 382.033 538.485 381.566 540.289 380.633C542.156 379.699 543.681 378.454 544.864 376.898C546.108 375.28 547.011 373.444 547.571 371.391C548.131 369.275 548.411 367.065 548.411 364.763C548.411 362.398 548.099 360.126 547.477 357.948C546.917 355.77 546.015 353.872 544.77 352.254C543.525 350.574 541.938 349.235 540.009 348.239C538.142 347.244 535.902 346.746 533.288 346.746ZM677.867 347.026C675.688 347.026 673.728 347.462 671.986 348.333C670.305 349.204 668.874 350.418 667.692 351.974C666.509 353.529 665.576 355.397 664.891 357.575C664.269 359.753 663.957 362.149 663.957 364.763C663.957 366.754 664.175 368.746 664.611 370.737C665.046 372.729 665.762 374.533 666.758 376.151C667.754 377.707 669.061 378.984 670.679 379.979C672.297 380.975 674.288 381.473 676.653 381.473C679.64 381.473 682.565 380.664 685.428 379.046C688.353 377.428 690.687 375.093 692.429 372.044V358.321C691.309 354.774 689.411 352.005 686.735 350.014C684.121 348.022 681.165 347.026 677.867 347.026ZM360.171 329.943C357.682 329.943 355.224 329.974 352.797 330.036C350.432 330.036 348.254 330.098 346.262 330.223V380.259C350.183 380.632 354.882 380.819 360.359 380.819C367.764 380.819 373.334 378.64 377.068 374.284C380.802 369.928 382.669 363.487 382.669 354.961C382.669 351.227 382.264 347.836 381.455 344.786C380.709 341.674 379.433 339.029 377.628 336.851C375.886 334.672 373.583 332.992 370.72 331.81C367.857 330.565 364.341 329.943 360.171 329.943ZM611.518 346.746C607.411 346.746 604.205 347.836 601.903 350.014C599.662 352.13 598.137 354.806 597.328 358.042H622.814C622.876 357.731 622.907 357.45 622.907 357.201V356.361C622.907 354.806 622.596 353.436 621.974 352.254C621.352 351.009 620.511 349.982 619.453 349.173C618.396 348.364 617.182 347.773 615.813 347.399C614.444 346.964 613.012 346.746 611.518 346.746ZM730.628 346.746C726.521 346.746 723.316 347.835 721.013 350.014C718.773 352.13 717.248 354.806 716.439 358.042H741.923C741.985 357.731 742.017 357.45 742.017 357.201V356.361C742.017 354.806 741.706 353.436 741.083 352.254C740.461 351.009 739.621 349.982 738.563 349.173C737.505 348.364 736.291 347.773 734.922 347.399C733.553 346.964 732.122 346.746 730.628 346.746ZM544.956 332.276L545.237 332.93L544.77 334.704L544.024 334.983L534.315 329.289L524.7 334.983L523.953 334.704L523.393 332.93L523.673 332.276L534.035 323.035H534.688L544.956 332.276ZM620.386 322.382C621.444 322.444 622.254 322.786 622.814 323.408C623.374 324.03 623.654 324.777 623.654 325.648C623.654 325.897 623.623 326.178 623.561 326.489C623.561 326.8 623.498 327.112 623.373 327.423L604.517 334.61L603.864 334.33L603.303 332.464L603.583 331.81L620.386 322.382Z" fill="#00286E"/>
<path d="M840.417 330.158C843.135 330.158 845.659 330.061 847.989 329.867C850.513 329.673 852.94 329.187 855.269 328.411C857.599 327.828 859.832 326.761 861.968 325.207C864.297 323.654 866.821 321.519 869.539 318.8C873.228 314.917 876.432 310.743 879.15 306.278C881.868 302.006 884.101 297.638 885.848 293.173L895.167 269.583L875.073 216.871C874.296 215.124 872.937 211.921 870.996 207.261C869.248 202.601 867.21 197.456 864.88 191.826C862.55 186.002 860.123 180.08 857.599 174.061C855.269 168.043 853.231 162.704 851.483 158.044C849.542 153.384 847.795 149.695 846.241 146.977C844.3 143.871 842.067 141.444 839.543 139.697C837.213 137.949 834.01 136.882 829.933 136.493L828.185 135.037V130.96L829.35 129.795C832.651 130.183 836.146 130.572 839.834 130.96C843.523 131.348 846.921 131.542 850.027 131.542H861.385C864.492 131.542 868.18 131.348 872.452 130.96C876.917 130.572 881.091 130.183 884.974 129.795L886.139 130.96V134.455L884.974 135.62C880.703 136.008 877.111 137.173 874.199 139.114C871.481 140.862 870.122 143.483 870.122 146.977C870.122 149.307 870.996 153.481 872.743 159.5C874.684 165.325 876.82 171.634 879.15 178.43C881.48 185.031 883.712 191.244 885.848 197.068C887.984 202.893 889.44 206.679 890.216 208.426L904.778 246.285L918.465 212.794C919.824 209.494 921.669 205.028 923.999 199.398C926.328 193.768 928.658 187.749 930.988 181.342C933.318 174.935 935.259 168.722 936.812 162.704C938.56 156.491 939.434 151.249 939.434 146.977C939.434 142.706 937.88 139.891 934.774 138.532C931.668 136.979 928.173 136.008 924.29 135.62L923.125 134.455V130.96L924.29 129.795C931.862 130.96 938.948 131.542 945.549 131.542H957.49C960.79 131.542 963.896 131.348 966.809 130.96C969.915 130.572 973.313 130.183 977.002 129.795L978.167 130.96V135.037L976.71 136.493C973.216 136.882 970.498 137.852 968.556 139.405C966.809 140.959 964.867 143.483 962.732 146.977C960.984 150.084 958.946 153.967 956.616 158.626C954.48 163.286 952.248 168.334 949.918 173.77C947.782 179.206 945.549 184.74 943.219 190.37C941.084 196 939.045 201.242 937.104 206.096C935.356 210.95 933.803 215.221 932.444 218.91C931.279 222.405 930.406 224.832 929.823 226.191L901.283 297.25C896.235 309.869 889.343 319.189 880.606 325.207C872.063 331.42 862.744 335.789 852.648 338.313C850.707 338.701 848.959 338.895 847.406 338.895C845.853 339.089 844.106 339.186 842.164 339.186L839.834 338.604L839.252 331.614L840.417 330.158Z" fill="#00286E"/>
<path d="M1042.14 190.952C1050.3 192.7 1056.8 195.127 1061.65 198.233C1066.7 201.145 1070.58 204.349 1073.3 207.843C1076.02 211.338 1077.77 214.93 1078.54 218.619C1079.51 222.114 1080 225.414 1080 228.52C1080 234.733 1078.74 240.461 1076.21 245.703C1073.69 250.945 1070 255.507 1065.15 259.39C1060.49 263.079 1054.76 265.992 1047.97 268.127C1041.17 270.263 1033.5 271.331 1024.96 271.331C1015.45 271.331 1006.51 270.263 998.166 268.127C990.011 265.797 983.507 263.37 978.654 260.847L978.071 258.225L982.439 228.229H989.138L990.011 229.394C990.011 238.713 992.924 246.091 998.748 251.527C1004.57 256.769 1013.02 259.39 1024.08 259.39C1030.69 259.39 1036.22 258.614 1040.68 257.061C1045.15 255.507 1048.64 253.469 1051.17 250.945C1053.89 248.421 1055.83 245.703 1056.99 242.791C1058.16 239.878 1058.74 237.063 1058.74 234.345C1058.74 232.598 1058.64 230.656 1058.45 228.52C1058.26 226.191 1057.48 223.958 1056.12 221.822C1054.76 219.493 1052.72 217.357 1050 215.415C1047.29 213.28 1043.4 211.532 1038.35 210.173L1010.4 203.184C1003.99 201.631 998.748 199.592 994.671 197.068C990.594 194.544 987.39 191.826 985.061 188.914C982.731 185.807 981.08 182.604 980.11 179.303C979.139 175.809 978.654 172.314 978.654 168.819C978.654 162.412 979.916 156.782 982.439 151.928C984.963 146.88 988.361 142.803 992.632 139.697C997.098 136.396 1002.24 133.969 1008.07 132.416C1013.89 130.669 1020.2 129.795 1027 129.795C1036.12 129.795 1044.47 130.96 1052.04 133.29C1059.81 135.62 1065.83 137.949 1070.1 140.279L1070.97 142.9L1067.77 165.325H1061.65L1060.49 164.451C1060.49 159.985 1059.23 156.297 1056.7 153.384C1054.37 150.278 1051.46 147.851 1047.97 146.104C1044.47 144.162 1040.78 142.803 1036.9 142.027C1033.02 141.25 1029.62 140.862 1026.71 140.862C1017 140.862 1010.01 143.288 1005.74 148.142C1001.47 152.996 999.331 158.432 999.331 164.451C999.331 168.916 1000.79 173.188 1003.7 177.265C1006.81 181.148 1012.73 184.157 1021.46 186.293L1042.14 190.952Z" fill="#00286E"/>
<path d="M772.115 59.6083L773.28 58.4434H778.522C781.823 58.4434 785.997 58.4434 791.045 58.4434C796.093 58.2493 800.461 57.861 804.15 57.2785L814.634 55.8224L816.382 58.4434C815.993 59.22 815.702 60.6761 815.508 62.8118C815.314 64.7533 815.12 66.889 814.926 69.2188C814.731 71.5486 814.537 73.7813 814.343 75.9169C814.343 78.0526 814.343 79.7029 814.343 80.8678C814.149 83.9742 813.955 86.8864 813.761 89.6045C813.761 92.3226 813.664 95.5261 813.469 99.215C813.469 102.904 813.469 107.369 813.469 112.611C813.469 117.853 813.469 124.552 813.469 132.706V196.193C813.469 204.347 813.469 211.046 813.469 216.288C813.664 221.53 813.761 225.995 813.761 229.684C813.955 233.373 814.052 236.576 814.052 239.294C814.246 242.013 814.44 245.119 814.634 248.614C815.023 252.691 815.411 255.797 815.799 257.933C816.382 259.874 817.45 261.525 819.003 262.884C820.556 264.243 822.692 265.116 825.41 265.505C828.322 265.893 831.234 266.087 834.146 266.087L835.603 267.543L836.185 271.329L835.603 272.494C834.244 272.494 832.205 272.397 829.487 272.203C826.769 272.009 823.856 271.815 820.75 271.62C817.644 271.62 814.731 271.523 812.013 271.329C809.295 271.329 807.257 271.329 805.898 271.329H801.82C800.461 271.329 798.326 271.329 795.413 271.329C792.695 271.523 789.783 271.62 786.677 271.62C783.764 271.815 780.852 272.009 777.94 272.203C775.222 272.397 773.183 272.494 771.824 272.494L771.533 271.329L771.824 267.252L772.989 266.087C776.095 266.087 779.105 265.99 782.017 265.796C785.123 265.408 787.453 264.437 789.006 262.884C790.56 261.525 791.53 259.777 791.919 257.642C792.501 255.506 792.987 252.497 793.375 248.614C793.569 246.09 793.666 243.566 793.666 241.042C793.86 238.518 793.957 235.606 793.957 232.305C794.151 228.81 794.249 224.83 794.249 220.365C794.249 215.705 794.249 209.978 794.249 203.182V133.288C794.249 125.328 794.249 118.63 794.249 113.194C794.249 107.563 794.151 102.71 793.957 98.6325C793.957 94.5554 793.86 90.9636 793.666 87.8572C793.666 84.7508 793.569 81.6444 793.375 78.538C793.181 76.4023 792.598 74.5579 791.628 73.0047C790.851 71.4515 790.171 70.2866 789.589 69.51C787.647 67.3743 785.221 66.0153 782.308 65.4328C779.396 64.8504 776.387 64.5591 773.28 64.5591L772.115 63.3942V59.6083Z" fill="#00286E"/>
<path d="M694.065 129.795C705.52 129.795 715.713 131.834 724.644 135.911C733.574 139.794 741.049 145.133 747.068 151.928C753.281 158.529 757.94 166.198 761.047 174.935C764.347 183.672 765.998 192.7 765.998 202.019C765.998 210.95 764.541 219.59 761.629 227.938C758.717 236.286 754.251 243.664 748.233 250.071C742.214 256.478 734.739 261.623 725.808 265.506C716.877 269.389 706.49 271.331 694.647 271.331C682.416 271.331 671.738 269.292 662.612 265.215C653.487 261.138 645.916 255.799 639.897 249.198C634.072 242.596 629.704 235.122 626.792 226.773C623.879 218.231 622.423 209.494 622.423 200.563C622.423 191.049 624.074 182.021 627.374 173.479C630.675 164.936 635.334 157.461 641.353 151.055C647.566 144.453 655.041 139.308 663.777 135.62C672.708 131.737 682.804 129.795 694.065 129.795ZM694.356 259.973C702.51 259.973 709.694 258.323 715.907 255.022C722.12 251.721 727.265 247.353 731.342 241.917C735.419 236.481 738.428 230.365 740.37 223.57C742.505 216.58 743.573 209.397 743.573 202.019C743.573 195.03 742.408 187.943 740.078 180.76C737.943 173.576 734.739 167.169 730.468 161.539C726.197 155.714 720.955 151.055 714.742 147.56C708.529 143.871 701.345 142.027 693.191 142.027C684.649 142.027 677.271 143.774 671.058 147.269C665.039 150.569 659.991 154.938 655.914 160.374C652.031 165.81 649.119 172.023 647.178 179.012C645.236 186.002 644.265 192.991 644.265 199.98C644.265 207.164 645.333 214.348 647.469 221.531C649.799 228.52 653.099 234.927 657.37 240.752C661.642 246.382 666.884 251.042 673.097 254.731C679.309 258.225 686.396 259.973 694.356 259.973Z" fill="#00286E"/>
<path d="M542.973 271.088L540.061 269.632L522.588 223.036C522.005 221.288 520.743 218.085 518.802 213.425C517.054 208.766 515.016 203.621 512.686 197.99C510.356 192.36 507.929 186.536 505.405 180.517C503.075 174.304 500.94 168.868 498.998 164.208C497.057 159.549 495.309 155.86 493.756 153.142C491.815 150.035 489.582 147.608 487.058 145.861C484.728 144.114 481.525 143.046 477.448 142.658L475.7 141.201V137.124L476.865 135.959C480.166 136.348 483.66 136.736 487.349 137.124C491.038 137.513 494.436 137.707 497.542 137.707H508.9C512.006 137.707 515.695 137.513 519.966 137.124C524.432 136.736 528.606 136.348 532.489 135.959L533.654 137.124V140.619L532.489 141.784C528.218 142.172 524.626 143.337 521.714 145.279C518.996 147.026 517.637 149.647 517.637 153.142C517.637 155.471 518.51 159.646 520.258 165.664C522.199 171.489 524.335 177.799 526.665 184.594C528.994 191.195 531.227 197.408 533.363 203.232C535.499 208.863 536.955 212.649 537.731 214.59L552.001 252.45L565.98 218.959C567.339 215.658 569.184 211.193 571.513 205.562C573.843 199.932 576.173 193.913 578.503 187.506C580.833 181.099 582.774 174.886 584.327 168.868C586.075 162.655 586.948 157.413 586.948 153.142C586.948 148.87 585.395 146.055 582.289 144.696C579.182 143.143 575.688 142.172 571.805 141.784L570.64 140.619V137.124L571.805 135.959C579.376 137.124 586.463 137.707 593.064 137.707H605.004C608.305 137.707 611.508 137.513 614.615 137.124C617.915 136.736 621.41 136.348 625.099 135.959L626.264 137.124V141.201L624.516 142.658C621.216 143.046 618.304 144.017 615.78 145.57C613.45 147.123 611.217 149.647 609.081 153.142C607.334 156.248 605.296 160.131 602.966 164.791C600.83 169.45 598.597 174.498 596.268 179.934C594.132 185.371 591.899 190.904 589.569 196.534C587.434 202.165 585.395 207.407 583.454 212.26C581.706 217.114 580.153 221.385 578.794 225.074C577.629 228.569 576.755 230.996 576.173 232.355L561.321 269.632L542.973 271.088Z" fill="#00286E"/>
<path d="M423.134 80.1725C425.658 80.1725 429.444 80.1725 434.492 80.1725C439.734 79.9784 444.976 79.7842 450.218 79.5901C455.46 79.3959 460.12 79.2989 464.197 79.2989C468.468 79.1047 471.089 79.0076 472.06 79.0076L473.516 81.9199L472.351 113.663H465.071L463.906 112.499C463.517 108.033 462.935 104.538 462.158 102.014C461.576 99.4905 459.634 97.6461 456.334 96.4811C453.227 95.3162 448.471 94.6367 442.064 94.4426C435.657 94.2484 426.629 94.1514 414.98 94.1514H387.022L386.44 105.509C386.245 108.616 386.051 111.237 385.857 113.372C385.857 115.508 385.76 118.129 385.566 121.235C385.566 124.342 385.566 128.128 385.566 132.593C385.566 136.864 385.566 147.349 385.566 164.045C391.39 163.851 397.215 163.754 403.039 163.754C408.864 163.754 414.106 163.657 418.766 163.463C423.619 163.269 427.697 162.881 430.997 162.298C434.298 161.522 436.53 160.454 437.695 159.095C439.249 157.541 440.608 155.988 441.772 154.435C442.937 152.882 443.52 150.649 443.52 147.737L444.976 146.281L449.927 145.698L451.092 146.281C450.703 150.746 450.315 154.629 449.927 157.93C449.733 161.23 449.636 165.016 449.636 169.288C449.636 173.947 449.733 178.316 449.927 182.393C450.315 186.276 450.703 190.547 451.092 195.207L449.927 195.789L444.685 195.207L443.52 194.333C443.52 191.227 442.937 188.411 441.772 185.887C440.608 183.169 439.249 180.937 437.695 179.189C436.53 178.024 434.298 177.151 430.997 176.568C427.697 175.986 423.716 175.597 419.057 175.403C414.397 175.209 409.155 175.112 403.331 175.112C397.506 175.112 391.585 175.112 385.566 175.112V203.361C385.566 210.35 385.566 216.078 385.566 220.543C385.566 224.815 385.566 228.698 385.566 232.192C385.76 235.493 385.954 238.599 386.148 241.511C386.343 244.23 386.634 247.433 387.022 251.122C387.022 254.811 388.964 256.655 392.847 256.655H417.601C429.25 256.655 438.375 256.461 444.976 256.073C451.771 255.49 456.916 254.422 460.411 252.869C463.906 251.316 466.333 248.986 467.692 245.88C469.245 242.579 470.701 238.308 472.06 233.066L473.225 231.901H480.797L475.555 268.887L473.225 271.799C472.254 271.799 470.021 271.702 466.527 271.508C463.032 271.508 459.052 271.411 454.586 271.216C450.315 271.022 445.947 270.828 441.481 270.634C437.21 270.634 433.812 270.634 431.288 270.634H372.461C371.102 270.634 368.869 270.731 365.763 270.925C362.656 271.119 359.453 271.314 356.152 271.508C352.852 271.702 349.648 271.896 346.542 272.09C343.435 272.284 341.203 272.381 339.844 272.381L339.261 271.216L340.135 265.974L341.591 264.81C344.697 264.81 347.61 264.712 350.328 264.518C353.046 264.13 355.279 263.256 357.026 261.897C358.579 260.538 360.035 258.791 361.394 256.655C362.947 254.52 363.918 250.734 364.306 245.297C364.306 243.938 364.306 242.385 364.306 240.638C364.501 238.696 364.598 236.366 364.598 233.648C364.792 230.93 364.889 227.63 364.889 223.747C364.889 219.864 364.889 215.01 364.889 209.185V150.067C364.889 143.271 364.889 137.544 364.889 132.884C364.889 128.225 364.889 124.245 364.889 120.944C364.889 117.644 364.792 114.828 364.598 112.499C364.598 110.169 364.501 107.839 364.306 105.509C363.918 100.267 362.947 96.5782 361.394 94.4426C360.035 92.1128 358.579 90.2683 357.026 88.9093C355.279 87.5502 353.046 86.7736 350.328 86.5795C347.61 86.1912 344.697 85.997 341.591 85.997L340.135 84.8321L339.261 79.5901L339.844 78.4252C341.203 78.4252 343.435 78.5222 346.542 78.7164C349.648 78.9105 352.949 79.1047 356.443 79.2989C360.132 79.493 363.627 79.6871 366.928 79.8813C370.422 80.0754 373.237 80.1725 375.373 80.1725H423.134Z" fill="#00286E"/>
<path d="M120.569 15.04C156.326 4.42116 192.858 -5.10172 233.847 3.09081C243.629 5.87384 258.093 10.4529 263.35 27.5635C266.288 44.7858 256.917 55.1603 250.16 62.8428C219.381 92.3768 182.675 105.014 145.829 115.894C123.267 122.057 100.167 126.383 76.5879 127.438C74.1889 127.533 71.7849 127.593 69.376 127.614C68.3244 127.839 67.2762 128.077 66.2314 128.327C50.6683 132.051 31.6481 140.422 30.7441 153.426C30.6746 166.468 49.0056 176.549 64.2383 181.682C80.3201 187.104 97.5199 189.455 114.585 189.676C141.307 189.867 171.225 184.957 188.756 170.258C192.81 166.645 194.363 162.754 193.812 160.885C194.501 159.072 193.243 155.052 189.473 151.082C179.33 141.017 164.171 134.262 147.771 130.043C150.322 129.41 152.894 128.718 155.477 127.952C162.937 125.74 170.05 123.097 176.713 120.13C186.081 123.561 195.321 128.326 204.328 134.999C210.855 140.488 218.365 149.411 218.444 162.013C217.425 174.564 209.275 182.768 202.361 187.642C173.183 205.591 143.155 205.303 114.058 203.772C95.8503 202.314 77.7866 198.955 60.4404 192.474C60.0586 192.307 59.6718 192.142 59.2832 191.975C53.5092 190.606 47.685 189.663 41.875 189.243C29.2837 188.242 13.2952 190.554 10.4795 199.569C7.83359 208.648 19.3568 221.13 29.9639 228.704C41.0906 236.765 53.7537 242.705 66.7314 246.9C87.0156 253.39 111.121 256.336 126.396 249.017C129.939 247.199 131.221 244.751 130.802 244.049C131.519 243.769 131.826 240.956 129.98 237.145C126.166 229.728 119.636 222.814 111.767 216.7C115.89 217.329 120.151 217.756 124.515 217.956C130.17 218.215 135.682 218.078 140.971 217.591C143.462 220.206 145.885 223.043 148.227 226.134C152.313 232.271 156.632 241.745 153.928 252.597C150.195 263.068 141.596 267.769 134.997 269.956C107.779 276.958 84.8673 268.908 62.6543 260.402C48.8971 254.658 35.6601 247.48 23.5947 238.001C12.7121 228.419 -3.14221 216.894 0.544924 195.897C7.31768 180.494 20.8083 178.283 33.0537 177.797C26.2163 172.032 21.0779 164.264 20.165 152.942C22.4307 138.478 31.2775 130.561 41.5332 125.374C41.2749 125.325 41.0162 125.276 40.7578 125.225C29.4713 122.54 13.7551 118.966 8.61719 102.093C5.6275 84.7331 16.829 74.0824 25.1943 65.457C34.2691 56.8563 44.3642 49.9758 54.7481 43.8115C75.562 31.5937 97.7617 22.3516 120.569 15.04ZM227.569 24.6846C197.014 15.7758 159.072 21.5531 125.163 30.5342C103.114 36.5951 81.5231 44.8296 61.7295 55.9092C43.2617 66.3645 19.5161 83.4423 21.4824 98.9785C22.7178 105.471 33.2272 110.268 43.3623 112.069C53.7478 114.033 64.8431 114.195 75.8682 113.524C97.9332 112.094 119.986 107.297 141.274 100.531C175.662 89.2444 211.421 72.8529 233.311 47.9512C238.372 42.0684 240.664 34.8865 239.385 33.3652C239.932 31.6828 234.992 26.9568 227.569 24.6846Z" fill="#00286E"/>
</g>
<defs>
<clipPath id="clip0_55_81">
<rect width="1080" height="470.582" fill="white"/>
</clipPath>
</defs>
</svg>
